<mxfile host="app.diagrams.net" modified="2023-11-20T00:32:33.087Z" agent="Mozilla/5.0 (Windows NT 10.0; Win64; x64) AppleWebKit/537.36 (KHTML, like Gecko) Chrome/119.0.0.0 Safari/537.36 Edg/119.0.0.0" etag="9ChB_FedsVKex_dFhsqH" version="22.1.3" type="github">
  <diagram name="페이지-1" id="w3nvK51af3fUXopB2fl-">
    <mxGraphModel dx="3100" dy="819" grid="1" gridSize="10" guides="1" tooltips="1" connect="1" arrows="1" fold="1" page="1" pageScale="1" pageWidth="827" pageHeight="1169" math="0" shadow="0">
      <root>
        <mxCell id="0" />
        <mxCell id="1" parent="0" />
        <mxCell id="rJZymFhFSf-qSMHibZzN-1" value="&lt;b&gt;&lt;font style=&quot;font-size: 30px;&quot;&gt;VR MANAGER&lt;/font&gt;&lt;/b&gt;" style="rounded=1;whiteSpace=wrap;html=1;align=center;verticalAlign=top;spacingLeft=0;fillColor=#f5f5f5;fontColor=#333333;strokeColor=#666666;" vertex="1" parent="1">
          <mxGeometry x="10" y="220" width="770" height="2060" as="geometry" />
        </mxCell>
        <mxCell id="rJZymFhFSf-qSMHibZzN-2" value="&lt;div style=&quot;&quot;&gt;&lt;b&gt;&lt;font color=&quot;#007fff&quot;&gt;Send_message_to_vr_manager()&lt;/font&gt;&lt;/b&gt;&lt;/div&gt;&lt;div style=&quot;&quot;&gt;&lt;span style=&quot;background-color: initial;&quot;&gt;&lt;font color=&quot;#cccc00&quot;&gt;(service_vr_manager.c)&lt;/font&gt;&lt;/span&gt;&lt;/div&gt;&lt;div style=&quot;&quot;&gt;&lt;br&gt;&lt;/div&gt;&lt;div style=&quot;&quot;&gt;&lt;span style=&quot;background-color: initial;&quot;&gt;- main vr_manager task에게 다음 실행해야 할 부분을 message 형태로 가공해서 보내주는 함수&lt;/span&gt;&lt;/div&gt;&lt;div style=&quot;&quot;&gt;&lt;span style=&quot;background-color: initial;&quot;&gt;- SendMsg(&lt;b&gt;APPS_VR_MANAGER_TASK_ID&lt;/b&gt;, &amp;amp;message)로 전송&lt;/span&gt;&lt;/div&gt;&lt;div style=&quot;&quot;&gt;&lt;span style=&quot;background-color: initial;&quot;&gt;&lt;br&gt;&lt;/span&gt;&lt;/div&gt;&lt;div style=&quot;&quot;&gt;&lt;span style=&quot;background-color: initial;&quot;&gt;&lt;br&gt;&lt;/span&gt;&lt;/div&gt;" style="rounded=0;whiteSpace=wrap;html=1;align=left;labelPosition=center;verticalLabelPosition=middle;verticalAlign=top;spacingRight=0;spacingLeft=2;" vertex="1" parent="1">
          <mxGeometry x="210" y="272" width="390" height="100" as="geometry" />
        </mxCell>
        <mxCell id="rJZymFhFSf-qSMHibZzN-3" value="&lt;div style=&quot;font-size: 14px;&quot;&gt;&lt;b style=&quot;&quot;&gt;&lt;font style=&quot;font-size: 14px;&quot; color=&quot;#007fff&quot;&gt;APPS_VR_MANAGER_TASK()&lt;/font&gt;&lt;/b&gt;&lt;/div&gt;&lt;div style=&quot;font-size: 14px;&quot;&gt;&lt;span style=&quot;background-color: initial;&quot;&gt;&lt;font color=&quot;#cccc00&quot;&gt;(service_vr_manager.c)&lt;/font&gt;&lt;/span&gt;&lt;/div&gt;&lt;div style=&quot;&quot;&gt;&lt;br&gt;&lt;/div&gt;&lt;div style=&quot;&quot;&gt;&lt;span style=&quot;background-color: initial;&quot;&gt;- DQC에서 다음 실행할 동작을 제어해주는 handler thread&lt;/span&gt;&lt;/div&gt;&lt;div style=&quot;&quot;&gt;&lt;span style=&quot;background-color: initial;&quot;&gt;- 무한 루프를 돌면서 msg를 받으면 그것을 바로 case 마다 처리&lt;/span&gt;&lt;/div&gt;&lt;div style=&quot;&quot;&gt;&lt;br&gt;&lt;/div&gt;" style="rounded=0;whiteSpace=wrap;html=1;align=left;labelPosition=center;verticalLabelPosition=middle;verticalAlign=top;spacingRight=0;spacingLeft=2;fillColor=#d5e8d4;strokeColor=#82b366;" vertex="1" parent="1">
          <mxGeometry x="30" y="390" width="730" height="1810" as="geometry" />
        </mxCell>
        <mxCell id="rJZymFhFSf-qSMHibZzN-4" value="&lt;div style=&quot;&quot;&gt;case &lt;b&gt;eVR_MANAGER_AP_CONNECT_CONTROL&lt;/b&gt;&lt;/div&gt;&lt;div style=&quot;&quot;&gt;&lt;span style=&quot;background-color: initial;&quot;&gt;- Wifi AP 연결 상태를 알려주는 것&lt;/span&gt;&lt;/div&gt;&lt;div style=&quot;&quot;&gt;&lt;br&gt;&lt;/div&gt;&lt;div style=&quot;&quot;&gt;arg1이&amp;nbsp;&lt;b&gt;DQC_AP_CONNECT_REQUEST&lt;/b&gt;:&lt;/div&gt;&lt;div style=&quot;&quot;&gt;&lt;br&gt;&lt;/div&gt;&lt;div style=&quot;&quot;&gt;&lt;br&gt;&lt;/div&gt;&lt;div style=&quot;&quot;&gt;&lt;br&gt;&lt;/div&gt;&lt;div style=&quot;&quot;&gt;&lt;br&gt;&lt;/div&gt;&lt;div style=&quot;&quot;&gt;&lt;br&gt;&lt;/div&gt;" style="rounded=0;whiteSpace=wrap;html=1;align=left;labelPosition=center;verticalLabelPosition=middle;verticalAlign=top;spacingRight=0;spacingLeft=2;" vertex="1" parent="1">
          <mxGeometry x="40" y="559" width="710" height="220" as="geometry" />
        </mxCell>
        <mxCell id="rJZymFhFSf-qSMHibZzN-5" value="&lt;div style=&quot;text-align: left; border-color: var(--border-color);&quot;&gt;led 제어 신호 전송 : led_send_event(&lt;b&gt;LED_EVT_CONNET_MODE&lt;/b&gt;)&lt;/div&gt;&lt;div style=&quot;text-align: left;&quot;&gt;&lt;span style=&quot;border-color: var(--border-color); background-color: initial;&quot;&gt;&lt;br&gt;&lt;/span&gt;&lt;/div&gt;" style="rounded=1;whiteSpace=wrap;html=1;fillColor=#fff2cc;strokeColor=#d6b656;" vertex="1" parent="1">
          <mxGeometry x="50" y="630" width="360" height="40" as="geometry" />
        </mxCell>
        <mxCell id="rJZymFhFSf-qSMHibZzN-6" value="&lt;div style=&quot;text-align: left; border-color: var(--border-color);&quot;&gt;음원 재생 :&lt;/div&gt;&lt;div style=&quot;text-align: left; border-color: var(--border-color);&quot;&gt;playlist_push(&amp;amp;g_sound_apps-&amp;gt;playlist, PLAYLIST_TYPE_CODEC, &lt;b&gt;PLAY_RESOURCE_SND_ENTER_AP_MODE&lt;/b&gt;, VR_MODE_RUN_NONE);&lt;/div&gt;&lt;div style=&quot;text-align: left;&quot;&gt;&lt;span style=&quot;border-color: var(--border-color); background-color: initial;&quot;&gt;&lt;br&gt;&lt;/span&gt;&lt;/div&gt;" style="rounded=1;whiteSpace=wrap;html=1;fillColor=#f8cecc;strokeColor=#b85450;" vertex="1" parent="1">
          <mxGeometry x="50" y="683" width="690" height="70" as="geometry" />
        </mxCell>
        <mxCell id="rJZymFhFSf-qSMHibZzN-8" value="&lt;div style=&quot;&quot;&gt;&lt;b style=&quot;background-color: initial;&quot;&gt;&lt;font style=&quot;font-size: 30px;&quot;&gt;LED&lt;/font&gt;&lt;/b&gt;&lt;/div&gt;" style="rounded=1;whiteSpace=wrap;html=1;align=center;verticalAlign=top;spacingLeft=0;fillColor=#fff2cc;strokeColor=#d6b656;" vertex="1" parent="1">
          <mxGeometry x="-1290" y="400" width="1110" height="670" as="geometry" />
        </mxCell>
        <mxCell id="rJZymFhFSf-qSMHibZzN-11" value="&lt;div style=&quot;&quot;&gt;&lt;font color=&quot;#007fff&quot;&gt;&lt;b&gt;led_send_event&lt;/b&gt;&lt;/font&gt;&lt;/div&gt;&lt;div style=&quot;&quot;&gt;&lt;span style=&quot;background-color: initial;&quot;&gt;&lt;font color=&quot;#cccc00&quot;&gt;(apps_led.c)&lt;/font&gt;&lt;/span&gt;&lt;/div&gt;&lt;div style=&quot;&quot;&gt;&lt;br&gt;&lt;/div&gt;&lt;div style=&quot;&quot;&gt;&lt;span style=&quot;background-color: initial;&quot;&gt;- led main task인 &lt;b&gt;APPS_LED_TASK&lt;/b&gt;에게 msg를 보내주는 함수&lt;/span&gt;&lt;/div&gt;&lt;br&gt;&lt;div style=&quot;&quot;&gt;&lt;span style=&quot;background-color: initial;&quot;&gt;&lt;br&gt;&lt;/span&gt;&lt;/div&gt;" style="rounded=0;whiteSpace=wrap;html=1;align=left;labelPosition=center;verticalLabelPosition=middle;verticalAlign=top;spacingRight=0;spacingLeft=2;" vertex="1" parent="1">
          <mxGeometry x="-660" y="460" width="440" height="70" as="geometry" />
        </mxCell>
        <mxCell id="rJZymFhFSf-qSMHibZzN-12" value="&lt;div style=&quot;&quot;&gt;&lt;font color=&quot;#007fff&quot;&gt;&lt;b&gt;APPS_LED_TASK&lt;/b&gt;&lt;/font&gt;&lt;/div&gt;&lt;div style=&quot;&quot;&gt;&lt;span style=&quot;background-color: initial;&quot;&gt;&lt;font color=&quot;#cccc00&quot;&gt;(apps_led.c)&lt;/font&gt;&lt;/span&gt;&lt;/div&gt;&lt;div style=&quot;&quot;&gt;&lt;br&gt;&lt;/div&gt;&lt;div style=&quot;&quot;&gt;&lt;span style=&quot;background-color: initial;&quot;&gt;- led 제어 메인 함수&lt;/span&gt;&lt;/div&gt;&lt;div style=&quot;&quot;&gt;&lt;span style=&quot;background-color: initial;&quot;&gt;&lt;br&gt;&lt;/span&gt;&lt;/div&gt;&lt;div style=&quot;&quot;&gt;&lt;span style=&quot;background-color: initial;&quot;&gt;&lt;br&gt;&lt;/span&gt;&lt;/div&gt;&lt;br&gt;&lt;div style=&quot;&quot;&gt;&lt;span style=&quot;background-color: initial;&quot;&gt;&lt;br&gt;&lt;/span&gt;&lt;/div&gt;" style="rounded=0;whiteSpace=wrap;html=1;align=left;labelPosition=center;verticalLabelPosition=middle;verticalAlign=top;spacingRight=0;spacingLeft=2;fillColor=#d5e8d4;strokeColor=#82b366;" vertex="1" parent="1">
          <mxGeometry x="-1205" y="460" width="440" height="270" as="geometry" />
        </mxCell>
        <mxCell id="rJZymFhFSf-qSMHibZzN-13" value="&lt;div style=&quot;&quot;&gt;case &lt;b&gt;LED_EVT_CONNET_MODE&lt;/b&gt;&lt;/div&gt;&lt;div style=&quot;&quot;&gt;&lt;span style=&quot;background-color: initial;&quot;&gt;- led_action(&lt;b&gt;LED_ID_CONNET_MODE&lt;/b&gt;)&lt;/span&gt;&lt;/div&gt;&lt;div style=&quot;&quot;&gt;&lt;div&gt;&lt;br&gt;&lt;/div&gt;&lt;/div&gt;" style="rounded=0;whiteSpace=wrap;html=1;align=left;labelPosition=center;verticalLabelPosition=middle;verticalAlign=top;spacingRight=0;spacingLeft=2;" vertex="1" parent="1">
          <mxGeometry x="-1195" y="540" width="420" height="60" as="geometry" />
        </mxCell>
        <mxCell id="rJZymFhFSf-qSMHibZzN-16" value="&lt;div style=&quot;&quot;&gt;&lt;font color=&quot;#007fff&quot;&gt;&lt;b&gt;led_action&lt;/b&gt;&lt;/font&gt;&lt;/div&gt;&lt;div style=&quot;&quot;&gt;&lt;span style=&quot;background-color: initial;&quot;&gt;&lt;font color=&quot;#cccc00&quot;&gt;(apps_led.c)&lt;/font&gt;&lt;/span&gt;&lt;/div&gt;&lt;div style=&quot;&quot;&gt;&lt;br&gt;&lt;/div&gt;&lt;div style=&quot;&quot;&gt;&lt;span style=&quot;background-color: initial;&quot;&gt;- led를 틀어주는 함수&lt;/span&gt;&lt;/div&gt;&lt;div style=&quot;&quot;&gt;&lt;span style=&quot;background-color: initial;&quot;&gt;- APPS_LED_TASK에서 받은 action을 가지고 &lt;b&gt;led_set_color&lt;/b&gt; 실행&lt;/span&gt;&lt;/div&gt;&lt;div style=&quot;&quot;&gt;&lt;span style=&quot;background-color: initial;&quot;&gt;&lt;br&gt;&lt;/span&gt;&lt;/div&gt;&lt;div style=&quot;&quot;&gt;&lt;span style=&quot;background-color: initial;&quot;&gt;&lt;br&gt;&lt;/span&gt;&lt;/div&gt;&lt;br&gt;&lt;div style=&quot;&quot;&gt;&lt;span style=&quot;background-color: initial;&quot;&gt;&lt;br&gt;&lt;/span&gt;&lt;/div&gt;" style="rounded=0;whiteSpace=wrap;html=1;align=left;labelPosition=center;verticalLabelPosition=middle;verticalAlign=top;spacingRight=0;spacingLeft=2;" vertex="1" parent="1">
          <mxGeometry x="-1205" y="770" width="440" height="240" as="geometry" />
        </mxCell>
        <mxCell id="rJZymFhFSf-qSMHibZzN-27" value="LED_EVT_CONNET_MODE&lt;br&gt;" style="rounded=1;whiteSpace=wrap;html=1;align=left;" vertex="1" parent="1">
          <mxGeometry x="-1590" y="450" width="260" height="200" as="geometry" />
        </mxCell>
      </root>
    </mxGraphModel>
  </diagram>
</mxfile>
